<svg xmlns="http://www.w3.org/2000/svg" xmlns:xlink="http://www.w3.org/1999/xlink" id="Logo_wei&#xDF;" width="260" height="43" viewBox="0 0 260 43"><defs><clipPath id="clip-path"><rect id="Rechteck_3" data-name="Rechteck 3" width="260" height="43" transform="translate(0 0)" fill="none"></rect></clipPath></defs><path id="Pfad_11" data-name="Pfad 11" d="M426.1,45.53h7.026V16.3H426.1Z" transform="translate(-241.311 -9.547)" fill="#fff"></path><path id="Pfad_12" data-name="Pfad 12" d="M461.989,8.428V2.4H442.3V8.428Z" transform="translate(-250.485 -1.675)" fill="#fff"></path><path id="Pfad_13" data-name="Pfad 13" d="M461.989,89.728V83.7H442.3v6.028Z" transform="translate(-250.485 -47.717)" fill="#fff"></path><path id="Pfad_14" data-name="Pfad 14" d="M487.7,45.53h7.026V16.3H487.7Z" transform="translate(-276.196 -9.547)" fill="#fff"></path><path id="Pfad_15" data-name="Pfad 15" d="M24.286,2.4,7,20.557V2.4H0V43.686H7V28.362l5.9-5.956,12.779,21.28H33.6L17.809,17.9,32.034,2.4Z" transform="translate(0 -1.675)" fill="#fff"></path><path id="Pfad_16" data-name="Pfad 16" d="M91.06,2.4h7.026V43.686H91.06Z" transform="translate(-51.569 -1.675)" fill="#fff"></path><g id="Gruppe_4" data-name="Gruppe 4" transform="translate(0 0)"><g id="Gruppe_3" data-name="Gruppe 3" clip-path="url(#clip-path)"><path id="Pfad_17" data-name="Pfad 17" d="M166.877,29.722q.462,4.048,2.921,5.9t7.314,1.851a13.2,13.2,0,0,0,3.991-.521,7.22,7.22,0,0,0,2.6-1.387,4.76,4.76,0,0,0,1.387-2.053,7.723,7.723,0,0,0,.4-2.515,6.679,6.679,0,0,0-.288-1.937,4.53,4.53,0,0,0-1.04-1.764,6.637,6.637,0,0,0-2.025-1.416,12.768,12.768,0,0,0-3.238-.955l-5.261-.982a35.857,35.857,0,0,1-5.551-1.447,12.718,12.718,0,0,1-4.077-2.283,8.973,8.973,0,0,1-2.487-3.47,13.224,13.224,0,0,1-.838-5,10.673,10.673,0,0,1,1.186-5.146,10.63,10.63,0,0,1,3.266-3.672,14.683,14.683,0,0,1,4.944-2.2A25.363,25.363,0,0,1,176.3,0a22.5,22.5,0,0,1,7.171.984,13.549,13.549,0,0,1,4.683,2.573,10.671,10.671,0,0,1,2.717,3.672,17.027,17.027,0,0,1,1.272,4.335l-6.591,1.042a9.211,9.211,0,0,0-2.8-5.146q-2-1.678-6.331-1.678a16.63,16.63,0,0,0-4.135.434,7.4,7.4,0,0,0-2.66,1.216,4.53,4.53,0,0,0-1.445,1.792,5.3,5.3,0,0,0-.434,2.112,5.183,5.183,0,0,0,1.475,4.047,11.244,11.244,0,0,0,5.175,2.081l5.724,1.1q6.536,1.214,9.6,4.135t3.063,8.412a12.126,12.126,0,0,1-.953,4.829,10.333,10.333,0,0,1-2.921,3.874,14.543,14.543,0,0,1-4.886,2.6,21.9,21.9,0,0,1-6.794.953q-7.921,0-12.432-3.324t-4.973-10.321Z" transform="translate(-90.512 -0.316)" fill="#fff"></path><path id="Pfad_18" data-name="Pfad 18" d="M260.484,2.4h6.938L283.15,43.686h-7.459l-3.874-10.524H255.8l-3.818,10.524h-7.228Zm9.425,24.921-6.13-17-6.071,17Z" transform="translate(-138.611 -1.675)" fill="#fff"></path><path id="Pfad_19" data-name="Pfad 19" d="M353.847,2.4V37.658h19.6v6.028H346.821V2.4Z" transform="translate(-196.413 -1.675)" fill="#fff"></path><path id="Pfad_20" data-name="Pfad 20" d="M525.6,2.4h6.475l18.967,29.835V2.4h6.823V43.686h-6.476L532.367,13.966V43.686H525.6Z" transform="translate(-297.662 -1.675)" fill="#fff"></path></g></g></svg>