<?xml version="1.0" encoding="UTF-8" standalone="no"?>
<svg version="1.1" width="1514.2006" height="708.97498" viewBox="0 0 1514.2006 708.97498" id="svg44" sodipodi:docname="placerholder.svg" inkscape:version="1.2.2 (b0a8486541, 2022-12-01)" xmlns:inkscape="http://www.inkscape.org/namespaces/inkscape" xmlns:sodipodi="http://sodipodi.sourceforge.net/DTD/sodipodi-0.dtd" xmlns="http://www.w3.org/2000/svg" xmlns:svg="http://www.w3.org/2000/svg">
  <defs id="defs48">
    <rect x="-202.64835" y="-662.12653" width="978.14838" height="553.93048" id="rect331" />
  </defs>
  <sodipodi:namedview id="namedview46" pagecolor="#ffffff" bordercolor="#666666" borderopacity="1.0" inkscape:showpageshadow="2" inkscape:pageopacity="0.0" inkscape:pagecheckerboard="0" inkscape:deskcolor="#d1d1d1" showgrid="false" inkscape:zoom="0.39386669" inkscape:cx="556.02569" inkscape:cy="170.10832" inkscape:window-width="1920" inkscape:window-height="1131" inkscape:window-x="0" inkscape:window-y="0" inkscape:window-maximized="1" inkscape:current-layer="svg44" />
  <g id="g1903" transform="translate(122.45596)">
    <path d="m 463.77579,375.47497 c -33.98618,-11.32873 -60.6493,22.62324 -72,51 -18.3692,45.92301 5.47285,95.38704 55,106 21.41928,4.58985 42.98873,3.57061 63,-6 27.11701,-12.96901 43.00209,-51.99582 29,-80 -12.26756,-24.53513 -43.47084,-32.64702 -69,-29 -16.54837,2.36405 -32.15064,6.45191 -38,24 -12.1248,36.3744 40.75098,68.41547 64,40 11.00432,-13.44972 7.52705,-39.22382 -15,-35 -5.95659,1.11686 -8.38223,5.77927 -12,10" id="path2" style="font-family:none;mix-blend-mode:normal;fill:none;fill-rule:nonzero;stroke:#767676;stroke-width:3;stroke-linecap:round;stroke-linejoin:miter;stroke-miterlimit:10;stroke-dasharray:none;stroke-dashoffset:0;stroke-opacity:1" />
    <path d="m 585.77579,414.47497 c -42.31875,-36.27322 7.74273,-89.31432 53,-78 35.46464,8.86616 55.62063,57.74274 18,78 -19.92396,10.72829 -53.85069,-11.79167 -52,-34 0.91334,-10.96005 10.39113,-21 22,-21 8.4785,0 26.63321,13.0917 3,19" id="path4" style="font-family:none;mix-blend-mode:normal;fill:none;fill-rule:nonzero;stroke:#767676;stroke-width:3;stroke-linecap:round;stroke-linejoin:miter;stroke-miterlimit:10;stroke-dasharray:none;stroke-dashoffset:0;stroke-opacity:1" />
    <path d="m 717.77579,457.47497 c -11.39148,0 -22.57635,-2 -34,-2 -18.05222,0 -35.98819,2.00131 -54,0 -6.55158,-0.72795 -28.63365,-8.73269 -33,0 -2.53859,5.07718 0.37314,11.35826 1,17 1.81533,16.338 4,32.5262 4,49 0,12.75658 -0.39391,25.27206 -1,38 -0.23783,4.99434 -3,11 0,15 3.1877,4.25026 13.66746,0.51834 16,0 11.7194,-2.60431 23.07575,-4.14827 35,-5 16.04122,-1.1458 34.0595,-0.99256 50,1 1.57462,0.19683 22.07525,2.42034 23,2 7.67663,-3.48938 5,-13.71468 5,-20 0,-15.92304 1.89073,-31.96689 1,-48 -0.29422,-5.29592 -0.25924,-15.01231 -4,-20 -3.84504,-5.12673 -13.30708,-5.66512 -19,-6 -17.65693,-1.03864 -35.35391,-2.1177 -53,-3 -9.22318,-0.46116 -10.63364,0.79279 -19,-1 -2.06139,-0.44173 -4.38045,-3.34963 -6,-2 -1.79252,1.49376 0.14555,4.67121 0,7 -0.5597,8.95523 -1.25645,18.07743 -2,27 -0.49579,5.94949 -4.80789,30.38986 -2,34 4.36207,5.60837 11.13484,1.85856 16,1 15.02282,-2.65109 31.29633,-3.52421 46,1 5.16175,1.58823 14.60536,6.27806 19,0 2.68778,-3.83968 1,-15.60056 1,-20 0,-4.94254 2.6766,-17.96518 -4,-21 -6.51813,-2.96279 -26.1223,1.43765 -34,1 -5.74537,-0.31919 -11.32407,-3.94599 -17,-3 -6.90126,1.15021 -7.53499,13.13286 -1,15 0.3641,0.10403 18.05918,-1.89546 19,-2" id="path6" style="font-family:none;mix-blend-mode:normal;fill:none;fill-rule:nonzero;stroke:#767676;stroke-width:3;stroke-linecap:round;stroke-linejoin:miter;stroke-miterlimit:10;stroke-dasharray:none;stroke-dashoffset:0;stroke-opacity:1" />
    <path d="m 761.77579,480.47497 c 3.1679,-25.34331 4.3815,-52.63855 1,-78 -0.53942,-4.04567 -5.11852,-32.76295 -4,-35 3.02858,-6.05717 35.0118,-6.78312 40,-7 33.2161,-1.44418 65.9384,1 99,1 9.5358,0 18.5475,0.18156 28,-1 2.3388,-0.29235 5.0013,-2.24922 7,-1 3.9674,2.47963 1,9.32144 1,14 0,15.70487 1,31.34086 1,47 0,13.64711 2.1495,27.39191 3,41 0.1887,3.01962 2.6837,11.77673 -1,15 -2.123,1.85762 -24.6357,1.58736 -30,2 -27.9443,2.14956 -56.1818,-0.86014 -84,-3 -5.2956,-0.40736 -17.7321,2.7344 -22,-1 -5.4446,-4.76405 -1.4099,-23.8035 -2,-30 -1.3638,-14.32048 -2.8918,-28.5929 -4,-43 -0.3363,-4.3714 -4.8871,-9.70047 -2,-13 4.1833,-4.78094 21.4225,-3 27,-3 15.1719,0 30.8808,1.16302 46,0 7.5737,-0.58259 20.9535,-4.25223 28,-1 6.121,2.82506 4.1628,14.41818 4,18 -0.5131,11.28842 -0.6274,21.70643 0,33 0.2595,4.67135 3.8724,10.30697 1,14 -3.5678,4.5872 -14.2866,2.7937 -18,3 -13.9746,0.77637 -36.4017,4.82783 -50,-1 -8.3985,-3.59934 -3.5759,-14.21422 -4,-21 -0.3027,-4.84395 -4.7979,-9.21263 -4,-14 0.3875,-2.32495 2.8336,-4.07152 5,-5 3.8291,-1.64106 31.1095,-7.11175 34,-6 5.8996,2.26907 19.4332,21.71217 10,26 -4.7065,2.13932 -14.7914,-1 -20,-1" id="path8" style="font-family:none;mix-blend-mode:normal;fill:none;fill-rule:nonzero;stroke:#767676;stroke-width:3;stroke-linecap:round;stroke-linejoin:miter;stroke-miterlimit:10;stroke-dasharray:none;stroke-dashoffset:0;stroke-opacity:1" />
    <path d="m 719.77579,392.47497 c -3,-0.66667 -5.9865,-2.6027 -9,-2 -12.89413,2.57883 -21.82347,35 1,35 21.57516,0 29.67876,-27.88082 13,-39" id="path10" style="font-family:none;mix-blend-mode:normal;fill:none;fill-rule:nonzero;stroke:#767676;stroke-width:3;stroke-linecap:round;stroke-linejoin:miter;stroke-miterlimit:10;stroke-dasharray:none;stroke-dashoffset:0;stroke-opacity:1" />
    <path d="m 520.77579,349.47497 c -16.72637,2.78773 -18.8363,38.36726 3,34 20.47955,-4.09591 24.59665,-36.96999 -1,-26" id="path12" style="font-family:none;mix-blend-mode:normal;fill:none;fill-rule:nonzero;stroke:#767676;stroke-width:3;stroke-linecap:round;stroke-linejoin:miter;stroke-miterlimit:10;stroke-dasharray:none;stroke-dashoffset:0;stroke-opacity:1" />
    <path d="m 550.77579,549.47497 c -2.33333,-0.66667 -4.75997,-2.93335 -7,-2 -9.74957,4.06232 -15.82123,34.60159 -3,40 6.86243,2.88944 15.61812,3.9685 23,2 10.36993,-2.76531 20.27678,-20.5387 14,-31 -7.02048,-11.7008 -14.87156,-11.58978 -26,-10" id="path14" style="font-family:none;mix-blend-mode:normal;fill:none;fill-rule:nonzero;stroke:#767676;stroke-width:3;stroke-linecap:round;stroke-linejoin:miter;stroke-miterlimit:10;stroke-dasharray:none;stroke-dashoffset:0;stroke-opacity:1" />
    <path d="m 764.77579,516.47497 c 2.6667,-1.66667 5.1096,-3.76126 8,-5 1.8636,-0.79871 3.9724,-1 6,-1 3.6818,0 7.5281,-0.22537 11,1 17.5855,6.20666 -5.7942,36.28234 16,45 11.7158,4.68633 30.7908,-11.37563 40,-5 12.9763,8.98362 5.2357,34.0884 21,40 13.0291,4.88592 25.6802,-6.85424 39,-4 15.5157,3.3248 19.0878,20.71673 28,31 7.7391,8.92972 16.1363,12.04954 27,16" id="path16" style="font-family:none;mix-blend-mode:normal;fill:none;fill-rule:nonzero;stroke:#767676;stroke-width:3;stroke-linecap:round;stroke-linejoin:miter;stroke-miterlimit:10;stroke-dasharray:none;stroke-dashoffset:0;stroke-opacity:1" />
    <path d="m 728.77579,348.47497 c 2.66791,-9.3377 4.53753,-25.90482 14,-31 13.15891,-7.08557 24.943,12.24564 39,1 7.9535,-6.36276 10.2542,-27.55447 17,-29 4.3066,-0.92284 17.567,7.41581 25,6 10.1,-1.9238 16.0992,-13.06504 25,-15 9.553,-2.07674 21.0705,2.99295 31,2 11.3751,-1.13751 20.9344,-5.96719 31,-11" id="path18" style="font-family:none;mix-blend-mode:normal;fill:none;fill-rule:nonzero;stroke:#767676;stroke-width:3;stroke-linecap:round;stroke-linejoin:miter;stroke-miterlimit:10;stroke-dasharray:none;stroke-dashoffset:0;stroke-opacity:1" />
    <path d="m 468.77579,335.47497 c -8.7961,-7.33008 -6.84362,-20.42459 -19,-24 -14.7438,-4.33641 -28.54328,20.00171 -40,11 -9.11914,-7.16504 -1.53509,-28.32105 -16,-37 -17.55573,-10.53344 -31.15387,9.02885 -47,12 -18.60463,3.48837 -7.46012,-27.64464 -22,-31 -2.3196,-0.53529 -15.38474,5.66441 -16,6 -10.15874,5.54113 -19.62805,11.81402 -30,17" id="path20" style="font-family:none;mix-blend-mode:normal;fill:none;fill-rule:nonzero;stroke:#767676;stroke-width:3;stroke-linecap:round;stroke-linejoin:miter;stroke-miterlimit:10;stroke-dasharray:none;stroke-dashoffset:0;stroke-opacity:1" />
    <path d="m 483.77579,574.47497 c 0,8.48385 5.02209,36.13039 -9,38 -10.48761,1.39835 -18.39156,-13.69578 -27,-18 -0.97152,-0.48576 -12.03501,-4.22816 -13,-3 -7.53418,9.58895 -3,26.34473 -3,37 0,2.02759 0.81353,5.09324 -1,6 -14.12579,7.06289 -11.72525,-8.86814 -22,-7 -9.38365,1.70612 -5.40202,17.83203 -9,24 -5.13638,8.80522 -15.78624,5.90794 -23,11 -15.2555,10.76859 -22.44194,27.09357 -25,45" id="path22" style="font-family:none;mix-blend-mode:normal;fill:none;fill-rule:nonzero;stroke:#767676;stroke-width:3;stroke-linecap:round;stroke-linejoin:miter;stroke-miterlimit:10;stroke-dasharray:none;stroke-dashoffset:0;stroke-opacity:1" />
    <path d="m 767.77579,594.47497 c 5.2701,17.56701 9.8927,35.73654 12,54 0.5744,4.97807 0.7725,9.99407 1,15 0.078,1.71274 -0.8082,11.46825 2,13 4.5977,2.50782 10.7291,-0.81363 15,-2 17.4898,-4.85829 35.2724,-9.03014 52,-16 3.0066,-1.25274 19.7838,-5.09463 18,-10 -0.5922,-1.62867 -20.6463,-15.11703 -23,-17 -10.4402,-8.3522 -23.2438,-17.53408 -35,-24 -15.3052,-8.41786 -32.4026,-14.26839 -47,-24" id="path24" style="font-family:none;mix-blend-mode:normal;fill:none;fill-rule:nonzero;stroke:#767676;stroke-width:3;stroke-linecap:round;stroke-linejoin:miter;stroke-miterlimit:10;stroke-dasharray:none;stroke-dashoffset:0;stroke-opacity:1" />
    <path d="m 981.77579,505.47497 c -20.7201,-2.30223 -38.5655,2.59594 -59,5 -6.6293,0.77991 -13.325,1 -20,1 -4.3461,0 -12.1476,-5.26174 -13,-1 -0.1999,0.99931 12.95,11.95382 13,12 15.5795,14.38106 27.1099,29.97301 41,46 1.5717,1.81353 7.306,10 10,10 4.2412,0 8.655,-9.67689 10,-12 11.5357,-19.9253 13.6336,-38.7787 20,-60" id="path26" style="font-family:none;mix-blend-mode:normal;fill:none;fill-rule:nonzero;stroke:#767676;stroke-width:3;stroke-linecap:round;stroke-linejoin:miter;stroke-miterlimit:10;stroke-dasharray:none;stroke-dashoffset:0;stroke-opacity:1" />
    <path d="m 974.77579,267.47497 c -9.9953,4.99766 -16.1391,13.74522 -25,20 -7.6378,5.39142 -17.7491,11.28518 -26,16 -2.2784,1.30197 -20,7.67528 -20,10 0,1.35117 11.5411,2.8941 12,3 10.4131,2.40303 21.3263,7.64682 31,12 8.3981,3.77915 18.0289,9.21737 26,14 4.2875,2.57248 7.2109,10.43674 12,9 8.5664,-2.5699 5,-17.95522 5,-24 0,-22.69052 -5.8144,-43.70099 -9,-66" id="path28" style="font-family:none;mix-blend-mode:normal;fill:none;fill-rule:nonzero;stroke:#767676;stroke-width:3;stroke-linecap:round;stroke-linejoin:miter;stroke-miterlimit:10;stroke-dasharray:none;stroke-dashoffset:0;stroke-opacity:1" />
    <path d="m 735.77579,260.47497 c -18.35979,-2.62283 -38.73649,-0.80977 -57,2 -2.47832,0.38128 -12.85002,1.84643 -15,2 -1.99492,0.14249 -5.75193,-1.98456 -6,0 -0.39005,3.12038 3.18653,5.43091 5,8 5.14017,7.28191 12.47991,13.63978 16,22 2.38029,5.65318 3.79762,13.39584 7,19 1.93863,3.39261 5.7273,11.4805 12,7 8.7575,-6.25536 9.72357,-19.84064 16,-28 7.25432,-9.43062 15.99858,-16.49751 22,-27" id="path30" style="font-family:none;mix-blend-mode:normal;fill:none;fill-rule:nonzero;stroke:#767676;stroke-width:3;stroke-linecap:round;stroke-linejoin:miter;stroke-miterlimit:10;stroke-dasharray:none;stroke-dashoffset:0;stroke-opacity:1" />
    <path d="m 557.77579,258.47497 c -12.83733,3.66781 -26.20725,8.90544 -37,17 -3.21109,2.40832 -5.7632,5.62635 -9,8 -1.80318,1.32233 -6.78514,0.9063 -6,3 0.74023,1.97394 13.59695,6.79847 16,8 16.23198,8.11599 30.2624,17.82674 47,25 1.1149,0.47781 14.21872,7.53438 16,7 5.54604,-1.66381 -0.83354,-13.53391 -1,-14 -6.34059,-17.75366 -9.6156,-36.76972 -17,-54" id="path32" style="font-family:none;mix-blend-mode:normal;fill:none;fill-rule:nonzero;stroke:#767676;stroke-width:3;stroke-linecap:round;stroke-linejoin:miter;stroke-miterlimit:10;stroke-dasharray:none;stroke-dashoffset:0;stroke-opacity:1" />
    <path d="m 413.77579,348.47497 c -19.2985,-4.28856 -38.43106,-6.59671 -58,-10 -7.02047,-1.22095 -14.01253,-2.60251 -21,-4 -1.98821,-0.39764 -4.47408,-2.33518 -6,-1 -3.40621,2.98043 -1.56327,13.99588 -1,17 2.42611,12.93924 4.12874,25.90115 6,39 0.59056,4.13391 0.0482,11.50344 7,12 3.00372,0.21455 17.34278,-10.52534 18,-11 18.03784,-13.02733 34.86784,-27.04845 53,-40" id="path34" style="font-family:none;mix-blend-mode:normal;fill:none;fill-rule:nonzero;stroke:#767676;stroke-width:3;stroke-linecap:round;stroke-linejoin:miter;stroke-miterlimit:10;stroke-dasharray:none;stroke-dashoffset:0;stroke-opacity:1" />
    <path d="m 431.77579,551.47497 c -19.07537,0 -37.07438,-4.81715 -56,-6 -3.79131,-0.23696 -18.65627,-1.67187 -22,0 -7.95739,3.9787 -1.95641,11.24873 0,16 4.21478,10.23589 8.39772,19.87499 13,30 1.95985,4.31167 4.81745,15.56018 9,18 2.7695,1.61554 9.93679,-7.18995 15,-12 14.36081,-13.64277 26.75715,-29.29763 42,-42" id="path36" style="font-family:none;mix-blend-mode:normal;fill:none;fill-rule:nonzero;stroke:#767676;stroke-width:3;stroke-linecap:round;stroke-linejoin:miter;stroke-miterlimit:10;stroke-dasharray:none;stroke-dashoffset:0;stroke-opacity:1" />
    <path d="m 523.77579,603.47497 c -5.15125,12.87814 -9.85717,25.60004 -18,37 -1.51147,2.11606 -17.20556,19.73889 -17,22 0.51602,5.67626 12.14176,3.78138 14,4 15.23794,1.7927 30.7354,3.81934 46,6 4.66667,0.66667 9.34077,1.2832 14,2 2.00401,0.30831 5.20129,2.86365 6,1 1.46226,-3.41193 -9.78296,-17.66458 -10,-18 -6.87198,-10.62033 -12.97073,-23.97073 -22,-33 -5.66667,-5.66667 -12.19167,-10.5889 -17,-17" id="path38" style="font-family:none;mix-blend-mode:normal;fill:none;fill-rule:nonzero;stroke:#767676;stroke-width:3;stroke-linecap:round;stroke-linejoin:miter;stroke-miterlimit:10;stroke-dasharray:none;stroke-dashoffset:0;stroke-opacity:1" />
    <path d="m 718.77579,600.47497 c -8.82089,1.26013 -16.23246,-1 -25,-1 -15.9655,0 -33.28363,0.14248 -49,3 -6.5866,1.19756 -20.23037,0.76443 -21,10 -0.92761,11.13129 20.2442,32.14492 26,41 3.17884,4.89052 14.41724,27.09052 19,29 5.28968,2.20403 14.32695,-17.06905 17,-21 12.11122,-17.81062 21.17739,-37.90319 34,-55" id="path40" style="font-family:none;mix-blend-mode:normal;fill:none;fill-rule:nonzero;stroke:#767676;stroke-width:3;stroke-linecap:round;stroke-linejoin:miter;stroke-miterlimit:10;stroke-dasharray:none;stroke-dashoffset:0;stroke-opacity:1" />
  </g>
  <g id="g1881" transform="translate(0,296.33729)" style="stroke:#767676;stroke-opacity:1">
    <g transform="translate(-7.3,-268.35729)" id="g494" style="fill:none;stroke:#767676;stroke-width:3;stroke-linecap:round;stroke-linejoin:round;stroke-dasharray:none;stroke-opacity:1">
      <path d="M 220,662 V 0 m 0,662 h 221 l 95,-32 62,-63 32,-63 32,-94 V 252 L 630,158 598,94.5 536,31.5 441,0 H 220" style="fill:none;stroke:#767676;stroke-width:75;stroke-dasharray:none;stroke-opacity:1" transform="scale(0.04,-0.04)" id="path446" />
      <path d="M 220,441 V 0 m 0,252 32,94 63,64 63,31 h 94" style="fill:none;stroke:#767676;stroke-width:75;stroke-dasharray:none;stroke-opacity:1" transform="matrix(0.04,0,0,-0.04,26.48,0)" id="path448" />
      <path d="M 567,441 V 0 m 0,346 -63,64 -63,31 H 346 L 284,410 220,346 189,252 V 189 L 220,94.5 284,31.5 346,0 h 95 l 63,31.5 63,63" style="fill:none;stroke:#767676;stroke-width:75;stroke-dasharray:none;stroke-opacity:1" transform="matrix(0.04,0,0,-0.04,42.88,0)" id="path450" />
      <path d="M 189,441 315,0 M 441,441 315,0 M 441,441 567,0 M 693,441 567,0" style="fill:none;stroke:#767676;stroke-width:75;stroke-dasharray:none;stroke-opacity:1" transform="matrix(0.04,0,0,-0.04,66.8,0)" id="path452" />
      <path d="M 567,441 V 0 m 0,346 -63,64 -63,31 H 346 L 284,410 220,346 189,252 V 189 L 220,94.5 284,31.5 346,0 h 95 l 63,31.5 63,63" style="fill:none;stroke:#767676;stroke-width:75;stroke-dasharray:none;stroke-opacity:1" transform="matrix(0.04,0,0,-0.04,109.64,0)" id="path454" />
      <path d="M 220,441 V 0 m 0,315 95,95 63,31 h 94 l 64,-31 31,-95 V 0" style="fill:none;stroke:#767676;stroke-width:75;stroke-dasharray:none;stroke-opacity:1" transform="matrix(0.04,0,0,-0.04,133.56,0)" id="path456" />
      <path d="M 158,441 346,0 M 536,441 346,0 l -62,-126 -64,-63 -62,-31 h -32" style="fill:none;stroke:#767676;stroke-width:75;stroke-dasharray:none;stroke-opacity:1" transform="matrix(0.04,0,0,-0.04,157.48,0)" id="path458" />
      <path d="m 220,441 v -661 m 0,566 64,64 62,31 h 95 l 63,-31 63,-64 31,-94 V 189 L 567,94.5 504,31.5 441,0 h -95 l -62,31.5 -64,63" style="fill:none;stroke:#767676;stroke-width:75;stroke-dasharray:none;stroke-opacity:1" transform="matrix(0.04,0,0,-0.04,192.76,0)" id="path460" />
      <path d="M 567,441 V 0 m 0,346 -63,64 -63,31 H 346 L 284,410 220,346 189,252 V 189 L 220,94.5 284,31.5 346,0 h 95 l 63,31.5 63,63" style="fill:none;stroke:#767676;stroke-width:75;stroke-dasharray:none;stroke-opacity:1" transform="matrix(0.04,0,0,-0.04,216.68,0)" id="path462" />
      <path d="M 252,662 V 126 L 284,31.5 346,0 h 64 M 158,441 h 220" style="fill:none;stroke:#767676;stroke-width:75;stroke-dasharray:none;stroke-opacity:1" transform="matrix(0.04,0,0,-0.04,240.6,0)" id="path464" />
      <path d="M 252,662 V 126 L 284,31.5 346,0 h 64 M 158,441 h 220" style="fill:none;stroke:#767676;stroke-width:75;stroke-dasharray:none;stroke-opacity:1" transform="matrix(0.04,0,0,-0.04,255.72,0)" id="path466" />
      <path d="m 189,252 h 378 v 63 l -31,63 -32,32 -63,31 H 346 L 284,410 220,346 189,252 V 189 L 220,94.5 284,31.5 346,0 h 95 l 63,31.5 63,63" style="fill:none;stroke:#767676;stroke-width:75;stroke-dasharray:none;stroke-opacity:1" transform="matrix(0.04,0,0,-0.04,270.84,0)" id="path468" />
      <path d="M 220,441 V 0 m 0,252 32,94 63,64 63,31 h 94" style="fill:none;stroke:#767676;stroke-width:75;stroke-dasharray:none;stroke-opacity:1" transform="matrix(0.04,0,0,-0.04,293.52,0)" id="path470" />
      <path d="M 220,441 V 0 m 0,315 95,95 63,31 h 94 l 64,-31 31,-95 V 0" style="fill:none;stroke:#767676;stroke-width:75;stroke-dasharray:none;stroke-opacity:1" transform="matrix(0.04,0,0,-0.04,309.92,0)" id="path472" />
      <path d="M 567,441 V 0 m 0,346 -63,64 -63,31 H 346 L 284,410 220,346 189,252 V 189 L 220,94.5 284,31.5 346,0 h 95 l 63,31.5 63,63" style="fill:none;stroke:#767676;stroke-width:75;stroke-dasharray:none;stroke-opacity:1" transform="matrix(0.04,0,0,-0.04,348.96,0)" id="path474" />
      <path d="M 220,441 V 0 m 0,315 95,95 63,31 h 94 l 64,-31 31,-95 V 0" style="fill:none;stroke:#767676;stroke-width:75;stroke-dasharray:none;stroke-opacity:1" transform="matrix(0.04,0,0,-0.04,372.88,0)" id="path476" />
      <path d="M 567,662 V 0 m 0,346 -63,64 -63,31 H 346 L 284,410 220,346 189,252 V 189 L 220,94.5 284,31.5 346,0 h 95 l 63,31.5 63,63" style="fill:none;stroke:#767676;stroke-width:75;stroke-dasharray:none;stroke-opacity:1" transform="matrix(0.04,0,0,-0.04,396.8,0)" id="path478" />
      <path d="m 536,346 -32,64 -94,31 h -95 l -95,-31 -31,-64 31,-62 64,-32 157,-32 63,-31 32,-63 V 94.5 L 504,31.5 410,0 h -95 l -95,31.5 -31,63" style="fill:none;stroke:#767676;stroke-width:75;stroke-dasharray:none;stroke-opacity:1" transform="matrix(0.04,0,0,-0.04,435.84,0)" id="path480" />
      <path d="M 220,662 V 0 m 0,315 95,95 63,31 h 94 l 64,-31 31,-95 V 0" style="fill:none;stroke:#767676;stroke-width:75;stroke-dasharray:none;stroke-opacity:1" transform="matrix(0.04,0,0,-0.04,457.28,0)" id="path482" />
      <path d="M 567,441 V 0 m 0,346 -63,64 -63,31 H 346 L 284,410 220,346 189,252 V 189 L 220,94.5 284,31.5 346,0 h 95 l 63,31.5 63,63" style="fill:none;stroke:#767676;stroke-width:75;stroke-dasharray:none;stroke-opacity:1" transform="matrix(0.04,0,0,-0.04,481.2,0)" id="path484" />
      <path d="m 220,441 v -661 m 0,566 64,64 62,31 h 95 l 63,-31 63,-64 31,-94 V 189 L 567,94.5 504,31.5 441,0 h -95 l -62,31.5 -64,63" style="fill:none;stroke:#767676;stroke-width:75;stroke-dasharray:none;stroke-opacity:1" transform="matrix(0.04,0,0,-0.04,505.12,0)" id="path486" />
      <path d="m 189,252 h 378 v 63 l -31,63 -32,32 -63,31 H 346 L 284,410 220,346 189,252 V 189 L 220,94.5 284,31.5 346,0 h 95 l 63,31.5 63,63" style="fill:none;stroke:#767676;stroke-width:75;stroke-dasharray:none;stroke-opacity:1" transform="matrix(0.04,0,0,-0.04,529.04,0)" id="path488" />
      <path d="m 536,346 -32,64 -94,31 h -95 l -95,-31 -31,-64 31,-62 64,-32 157,-32 63,-31 32,-63 V 94.5 L 504,31.5 410,0 h -95 l -95,31.5 -31,63" style="fill:none;stroke:#767676;stroke-width:75;stroke-dasharray:none;stroke-opacity:1" transform="matrix(0.04,0,0,-0.04,551.72,0)" id="path490" />
      <path d="m 220,158 -31,-32 31,-31.5 32,31.5 -32,32" style="fill:none;stroke:#767676;stroke-width:75;stroke-dasharray:none;stroke-opacity:1" transform="matrix(0.04,0,0,-0.04,573.16,0)" id="path492" />
    </g>
    <g id="g1740" transform="translate(0,23.96003)" style="stroke:#767676;stroke-opacity:1">
      <g transform="translate(-3.54,-218.35729)" id="g580" style="fill:none;stroke:#767676;stroke-width:3;stroke-linecap:round;stroke-linejoin:round;stroke-dasharray:none;stroke-opacity:1">
        <path d="M 346,662 V 0 M 126,662 h 441" style="fill:none;stroke:#767676;stroke-width:75;stroke-dasharray:none;stroke-opacity:1" transform="scale(0.04,-0.04)" id="path496" />
        <path d="M 220,662 V 0 m 0,315 95,95 63,31 h 94 l 64,-31 31,-95 V 0" style="fill:none;stroke:#767676;stroke-width:75;stroke-dasharray:none;stroke-opacity:1" transform="matrix(0.04,0,0,-0.04,20.16,0)" id="path498" />
        <path d="m 189,252 h 378 v 63 l -31,63 -32,32 -63,31 H 346 L 284,410 220,346 189,252 V 189 L 220,94.5 284,31.5 346,0 h 95 l 63,31.5 63,63" style="fill:none;stroke:#767676;stroke-width:75;stroke-dasharray:none;stroke-opacity:1" transform="matrix(0.04,0,0,-0.04,44.08,0)" id="path500" />
        <path d="M 158,441 346,0 M 536,441 346,0 l -62,-126 -64,-63 -62,-31 h -32" style="fill:none;stroke:#767676;stroke-width:75;stroke-dasharray:none;stroke-opacity:1" transform="matrix(0.04,0,0,-0.04,66.76,0)" id="path502" />
        <path d="M 189,441 315,0 M 441,441 315,0 M 441,441 567,0 M 693,441 567,0" style="fill:none;stroke:#767676;stroke-width:75;stroke-dasharray:none;stroke-opacity:1" transform="matrix(0.04,0,0,-0.04,102.04,0)" id="path504" />
        <path d="m 189,662 31,-32 32,32 -32,31 -31,-31 M 220,441 V 0" style="fill:none;stroke:#767676;stroke-width:75;stroke-dasharray:none;stroke-opacity:1" transform="matrix(0.04,0,0,-0.04,129.76,0)" id="path506" />
        <path d="M 220,662 V 0" style="fill:none;stroke:#767676;stroke-width:75;stroke-dasharray:none;stroke-opacity:1" transform="matrix(0.04,0,0,-0.04,139.84,0)" id="path508" />
        <path d="M 220,662 V 0" style="fill:none;stroke:#767676;stroke-width:75;stroke-dasharray:none;stroke-opacity:1" transform="matrix(0.04,0,0,-0.04,149.92,0)" id="path510" />
        <path d="M 220,662 V 0 m 0,346 64,64 62,31 h 95 l 63,-31 63,-64 31,-94 V 189 L 567,94.5 504,31.5 441,0 h -95 l -62,31.5 -64,63" style="fill:none;stroke:#767676;stroke-width:75;stroke-dasharray:none;stroke-opacity:1" transform="matrix(0.04,0,0,-0.04,175.12,0)" id="path512" />
        <path d="m 189,252 h 378 v 63 l -31,63 -32,32 -63,31 H 346 L 284,410 220,346 189,252 V 189 L 220,94.5 284,31.5 346,0 h 95 l 63,31.5 63,63" style="fill:none;stroke:#767676;stroke-width:75;stroke-dasharray:none;stroke-opacity:1" transform="matrix(0.04,0,0,-0.04,199.04,0)" id="path514" />
        <path d="M 220,441 V 126 L 252,31.5 315,0 h 95 l 62,31.5 95,94.5 m 0,315 V 0" style="fill:none;stroke:#767676;stroke-width:75;stroke-dasharray:none;stroke-opacity:1" transform="matrix(0.04,0,0,-0.04,236.84,0)" id="path516" />
        <path d="m 536,346 -32,64 -94,31 h -95 l -95,-31 -31,-64 31,-62 64,-32 157,-32 63,-31 32,-63 V 94.5 L 504,31.5 410,0 h -95 l -95,31.5 -31,63" style="fill:none;stroke:#767676;stroke-width:75;stroke-dasharray:none;stroke-opacity:1" transform="matrix(0.04,0,0,-0.04,260.76,0)" id="path518" />
        <path d="m 189,252 h 378 v 63 l -31,63 -32,32 -63,31 H 346 L 284,410 220,346 189,252 V 189 L 220,94.5 284,31.5 346,0 h 95 l 63,31.5 63,63" style="fill:none;stroke:#767676;stroke-width:75;stroke-dasharray:none;stroke-opacity:1" transform="matrix(0.04,0,0,-0.04,282.2,0)" id="path520" />
        <path d="M 567,662 V 0 m 0,346 -63,64 -63,31 H 346 L 284,410 220,346 189,252 V 189 L 220,94.5 284,31.5 346,0 h 95 l 63,31.5 63,63" style="fill:none;stroke:#767676;stroke-width:75;stroke-dasharray:none;stroke-opacity:1" transform="matrix(0.04,0,0,-0.04,304.88,0)" id="path522" />
        <path d="M 567,441 V 0 m 0,346 -63,64 -63,31 H 346 L 284,410 220,346 189,252 V 189 L 220,94.5 284,31.5 346,0 h 95 l 63,31.5 63,63" style="fill:none;stroke:#767676;stroke-width:75;stroke-dasharray:none;stroke-opacity:1" transform="matrix(0.04,0,0,-0.04,343.92,0)" id="path524" />
        <path d="m 536,346 -32,64 -94,31 h -95 l -95,-31 -31,-64 31,-62 64,-32 157,-32 63,-31 32,-63 V 94.5 L 504,31.5 410,0 h -95 l -95,31.5 -31,63" style="fill:none;stroke:#767676;stroke-width:75;stroke-dasharray:none;stroke-opacity:1" transform="matrix(0.04,0,0,-0.04,367.84,0)" id="path526" />
        <path d="M 220,441 V 0 m 0,252 32,94 63,64 63,31 h 94" style="fill:none;stroke:#767676;stroke-width:75;stroke-dasharray:none;stroke-opacity:1" transform="matrix(0.04,0,0,-0.04,404.4,0)" id="path528" />
        <path d="m 189,252 h 378 v 63 l -31,63 -32,32 -63,31 H 346 L 284,410 220,346 189,252 V 189 L 220,94.5 284,31.5 346,0 h 95 l 63,31.5 63,63" style="fill:none;stroke:#767676;stroke-width:75;stroke-dasharray:none;stroke-opacity:1" transform="matrix(0.04,0,0,-0.04,420.8,0)" id="path530" />
        <path d="M 410,662 H 346 L 284,630 252,536 V 0 m -94,441 h 220" style="fill:none;stroke:#767676;stroke-width:75;stroke-dasharray:none;stroke-opacity:1" transform="matrix(0.04,0,0,-0.04,443.48,0)" id="path532" />
        <path d="m 189,252 h 378 v 63 l -31,63 -32,32 -63,31 H 346 L 284,410 220,346 189,252 V 189 L 220,94.5 284,31.5 346,0 h 95 l 63,31.5 63,63" style="fill:none;stroke:#767676;stroke-width:75;stroke-dasharray:none;stroke-opacity:1" transform="matrix(0.04,0,0,-0.04,458.6,0)" id="path534" />
        <path d="M 220,441 V 0 m 0,252 32,94 63,64 63,31 h 94" style="fill:none;stroke:#767676;stroke-width:75;stroke-dasharray:none;stroke-opacity:1" transform="matrix(0.04,0,0,-0.04,481.28,0)" id="path536" />
        <path d="m 189,252 h 378 v 63 l -31,63 -32,32 -63,31 H 346 L 284,410 220,346 189,252 V 189 L 220,94.5 284,31.5 346,0 h 95 l 63,31.5 63,63" style="fill:none;stroke:#767676;stroke-width:75;stroke-dasharray:none;stroke-opacity:1" transform="matrix(0.04,0,0,-0.04,497.68,0)" id="path538" />
        <path d="M 220,441 V 0 m 0,315 95,95 63,31 h 94 l 64,-31 31,-95 V 0" style="fill:none;stroke:#767676;stroke-width:75;stroke-dasharray:none;stroke-opacity:1" transform="matrix(0.04,0,0,-0.04,520.36,0)" id="path540" />
        <path d="m 567,346 -63,64 -63,31 H 346 L 284,410 220,346 189,252 V 189 L 220,94.5 284,31.5 346,0 h 95 l 63,31.5 63,63" style="fill:none;stroke:#767676;stroke-width:75;stroke-dasharray:none;stroke-opacity:1" transform="matrix(0.04,0,0,-0.04,544.28,0)" id="path542" />
        <path d="m 189,252 h 378 v 63 l -31,63 -32,32 -63,31 H 346 L 284,410 220,346 189,252 V 189 L 220,94.5 284,31.5 346,0 h 95 l 63,31.5 63,63" style="fill:none;stroke:#767676;stroke-width:75;stroke-dasharray:none;stroke-opacity:1" transform="matrix(0.04,0,0,-0.04,566.96,0)" id="path544" />
        <path d="M 410,662 H 346 L 284,630 252,536 V 0 m -94,441 h 220" style="fill:none;stroke:#767676;stroke-width:75;stroke-dasharray:none;stroke-opacity:1" transform="matrix(0.04,0,0,-0.04,604.76,0)" id="path546" />
        <path d="M 346,441 284,410 220,346 189,252 V 189 L 220,94.5 284,31.5 346,0 h 95 l 63,31.5 63,63 31,94.5 v 63 l -31,94 -63,64 -63,31 h -95" style="fill:none;stroke:#767676;stroke-width:75;stroke-dasharray:none;stroke-opacity:1" transform="matrix(0.04,0,0,-0.04,619.88,0)" id="path548" />
        <path d="M 220,441 V 0 m 0,252 32,94 63,64 63,31 h 94" style="fill:none;stroke:#767676;stroke-width:75;stroke-dasharray:none;stroke-opacity:1" transform="matrix(0.04,0,0,-0.04,643.8,0)" id="path550" />
        <path d="m 220,441 v -661 m 0,566 64,64 62,31 h 95 l 63,-31 63,-64 31,-94 V 189 L 567,94.5 504,31.5 441,0 h -95 l -62,31.5 -64,63" style="fill:none;stroke:#767676;stroke-width:75;stroke-dasharray:none;stroke-opacity:1" transform="matrix(0.04,0,0,-0.04,675.32,0)" id="path552" />
        <path d="M 567,441 V 0 m 0,346 -63,64 -63,31 H 346 L 284,410 220,346 189,252 V 189 L 220,94.5 284,31.5 346,0 h 95 l 63,31.5 63,63" style="fill:none;stroke:#767676;stroke-width:75;stroke-dasharray:none;stroke-opacity:1" transform="matrix(0.04,0,0,-0.04,699.24,0)" id="path554" />
        <path d="M 252,662 V 126 L 284,31.5 346,0 h 64 M 158,441 h 220" style="fill:none;stroke:#767676;stroke-width:75;stroke-dasharray:none;stroke-opacity:1" transform="matrix(0.04,0,0,-0.04,723.16,0)" id="path556" />
        <path d="M 252,662 V 126 L 284,31.5 346,0 h 64 M 158,441 h 220" style="fill:none;stroke:#767676;stroke-width:75;stroke-dasharray:none;stroke-opacity:1" transform="matrix(0.04,0,0,-0.04,738.28,0)" id="path558" />
        <path d="m 189,252 h 378 v 63 l -31,63 -32,32 -63,31 H 346 L 284,410 220,346 189,252 V 189 L 220,94.5 284,31.5 346,0 h 95 l 63,31.5 63,63" style="fill:none;stroke:#767676;stroke-width:75;stroke-dasharray:none;stroke-opacity:1" transform="matrix(0.04,0,0,-0.04,753.4,0)" id="path560" />
        <path d="M 220,441 V 0 m 0,252 32,94 63,64 63,31 h 94" style="fill:none;stroke:#767676;stroke-width:75;stroke-dasharray:none;stroke-opacity:1" transform="matrix(0.04,0,0,-0.04,776.08,0)" id="path562" />
        <path d="M 220,441 V 0 m 0,315 95,95 63,31 h 94 l 64,-31 31,-95 V 0" style="fill:none;stroke:#767676;stroke-width:75;stroke-dasharray:none;stroke-opacity:1" transform="matrix(0.04,0,0,-0.04,792.48,0)" id="path564" />
        <path d="m 536,346 -32,64 -94,31 h -95 l -95,-31 -31,-64 31,-62 64,-32 157,-32 63,-31 32,-63 V 94.5 L 504,31.5 410,0 h -95 l -95,31.5 -31,63" style="fill:none;stroke:#767676;stroke-width:75;stroke-dasharray:none;stroke-opacity:1" transform="matrix(0.04,0,0,-0.04,816.4,0)" id="path566" />
        <path d="m 189,662 31,-32 32,32 -32,31 -31,-31 M 220,441 V 0" style="fill:none;stroke:#767676;stroke-width:75;stroke-dasharray:none;stroke-opacity:1" transform="matrix(0.04,0,0,-0.04,852.96,0)" id="path568" />
        <path d="M 220,441 V 0 m 0,315 95,95 63,31 h 94 l 64,-31 31,-95 V 0" style="fill:none;stroke:#767676;stroke-width:75;stroke-dasharray:none;stroke-opacity:1" transform="matrix(0.04,0,0,-0.04,863.04,0)" id="path570" />
        <path d="M 158,441 346,0 M 536,441 346,0 l -62,-126 -64,-63 -62,-31 h -32" style="fill:none;stroke:#767676;stroke-width:75;stroke-dasharray:none;stroke-opacity:1" transform="matrix(0.04,0,0,-0.04,902.08,0)" id="path572" />
        <path d="M 346,441 284,410 220,346 189,252 V 189 L 220,94.5 284,31.5 346,0 h 95 l 63,31.5 63,63 31,94.5 v 63 l -31,94 -63,64 -63,31 h -95" style="fill:none;stroke:#767676;stroke-width:75;stroke-dasharray:none;stroke-opacity:1" transform="matrix(0.04,0,0,-0.04,922.24,0)" id="path574" />
        <path d="M 220,441 V 126 L 252,31.5 315,0 h 95 l 62,31.5 95,94.5 m 0,315 V 0" style="fill:none;stroke:#767676;stroke-width:75;stroke-dasharray:none;stroke-opacity:1" transform="matrix(0.04,0,0,-0.04,946.16,0)" id="path576" />
        <path d="M 220,441 V 0 m 0,252 32,94 63,64 63,31 h 94" style="fill:none;stroke:#767676;stroke-width:75;stroke-dasharray:none;stroke-opacity:1" transform="matrix(0.04,0,0,-0.04,970.08,0)" id="path578" />
      </g>
      <g transform="translate(994.94066,-216.27735)" id="g628" style="fill:none;stroke:#767676;stroke-width:3;stroke-linecap:round;stroke-linejoin:round;stroke-dasharray:none;stroke-opacity:1">
        <path d="m 189,662 31,-32 32,32 -32,31 -31,-31 M 220,441 V 0" style="fill:none;stroke:#767676;stroke-width:75;stroke-dasharray:none;stroke-opacity:1" transform="scale(0.04,-0.04)" id="path582" />
        <path d="M 220,441 V 0 m 0,315 95,95 63,31 h 94 l 64,-31 31,-95 V 0 m 0,315 95,95 62,31 h 95 l 63,-31 32,-95 V 0" style="fill:none;stroke:#767676;stroke-width:75;stroke-dasharray:none;stroke-opacity:1" transform="matrix(0.04,0,0,-0.04,10.08,0)" id="path584" />
        <path d="M 567,441 V 0 m 0,346 -63,64 -63,31 H 346 L 284,410 220,346 189,252 V 189 L 220,94.5 284,31.5 346,0 h 95 l 63,31.5 63,63" style="fill:none;stroke:#767676;stroke-width:75;stroke-dasharray:none;stroke-opacity:1" transform="matrix(0.04,0,0,-0.04,47.88,0)" id="path586" />
        <path d="M 567,441 V -63 l -31,-95 -32,-31 -63,-31 h -95 l -62,31 m 283,535 -63,64 -63,31 H 346 L 284,410 220,346 189,252 V 189 L 220,94.5 284,31.5 346,0 h 95 l 63,31.5 63,63" style="fill:none;stroke:#767676;stroke-width:75;stroke-dasharray:none;stroke-opacity:1" transform="matrix(0.04,0,0,-0.04,71.8,0)" id="path588" />
        <path d="m 189,252 h 378 v 63 l -31,63 -32,32 -63,31 H 346 L 284,410 220,346 189,252 V 189 L 220,94.5 284,31.5 346,0 h 95 l 63,31.5 63,63" style="fill:none;stroke:#767676;stroke-width:75;stroke-dasharray:none;stroke-opacity:1" transform="matrix(0.04,0,0,-0.04,95.72,0)" id="path590" />
        <path d="M 567,441 V -63 l -31,-95 -32,-31 -63,-31 h -95 l -62,31 m 283,535 -63,64 -63,31 H 346 L 284,410 220,346 189,252 V 189 L 220,94.5 284,31.5 346,0 h 95 l 63,31.5 63,63" style="fill:none;stroke:#767676;stroke-width:75;stroke-dasharray:none;stroke-opacity:1" transform="matrix(0.04,0,0,-0.04,133.52,0)" id="path592" />
        <path d="m 189,252 h 378 v 63 l -31,63 -32,32 -63,31 H 346 L 284,410 220,346 189,252 V 189 L 220,94.5 284,31.5 346,0 h 95 l 63,31.5 63,63" style="fill:none;stroke:#767676;stroke-width:75;stroke-dasharray:none;stroke-opacity:1" transform="matrix(0.04,0,0,-0.04,157.44,0)" id="path594" />
        <path d="M 220,441 V 0 m 0,315 95,95 63,31 h 94 l 64,-31 31,-95 V 0" style="fill:none;stroke:#767676;stroke-width:75;stroke-dasharray:none;stroke-opacity:1" transform="matrix(0.04,0,0,-0.04,180.12,0)" id="path596" />
        <path d="m 189,252 h 378 v 63 l -31,63 -32,32 -63,31 H 346 L 284,410 220,346 189,252 V 189 L 220,94.5 284,31.5 346,0 h 95 l 63,31.5 63,63" style="fill:none;stroke:#767676;stroke-width:75;stroke-dasharray:none;stroke-opacity:1" transform="matrix(0.04,0,0,-0.04,204.04,0)" id="path598" />
        <path d="M 220,441 V 0 m 0,252 32,94 63,64 63,31 h 94" style="fill:none;stroke:#767676;stroke-width:75;stroke-dasharray:none;stroke-opacity:1" transform="matrix(0.04,0,0,-0.04,226.72,0)" id="path600" />
        <path d="M 567,441 V 0 m 0,346 -63,64 -63,31 H 346 L 284,410 220,346 189,252 V 189 L 220,94.5 284,31.5 346,0 h 95 l 63,31.5 63,63" style="fill:none;stroke:#767676;stroke-width:75;stroke-dasharray:none;stroke-opacity:1" transform="matrix(0.04,0,0,-0.04,243.12,0)" id="path602" />
        <path d="M 252,662 V 126 L 284,31.5 346,0 h 64 M 158,441 h 220" style="fill:none;stroke:#767676;stroke-width:75;stroke-dasharray:none;stroke-opacity:1" transform="matrix(0.04,0,0,-0.04,267.04,0)" id="path604" />
        <path d="m 189,662 31,-32 32,32 -32,31 -31,-31 M 220,441 V 0" style="fill:none;stroke:#767676;stroke-width:75;stroke-dasharray:none;stroke-opacity:1" transform="matrix(0.04,0,0,-0.04,282.16,0)" id="path606" />
        <path d="M 346,441 284,410 220,346 189,252 V 189 L 220,94.5 284,31.5 346,0 h 95 l 63,31.5 63,63 31,94.5 v 63 l -31,94 -63,64 -63,31 h -95" style="fill:none;stroke:#767676;stroke-width:75;stroke-dasharray:none;stroke-opacity:1" transform="matrix(0.04,0,0,-0.04,292.24,0)" id="path608" />
        <path d="M 220,441 V 0 m 0,315 95,95 63,31 h 94 l 64,-31 31,-95 V 0" style="fill:none;stroke:#767676;stroke-width:75;stroke-dasharray:none;stroke-opacity:1" transform="matrix(0.04,0,0,-0.04,316.16,0)" id="path610" />
        <path d="m 220,441 v -661 m 0,566 64,64 62,31 h 95 l 63,-31 63,-64 31,-94 V 189 L 567,94.5 504,31.5 441,0 h -95 l -62,31.5 -64,63" style="fill:none;stroke:#767676;stroke-width:75;stroke-dasharray:none;stroke-opacity:1" transform="matrix(0.04,0,0,-0.04,355.2,0)" id="path612" />
        <path d="M 220,441 V 0 m 0,252 32,94 63,64 63,31 h 94" style="fill:none;stroke:#767676;stroke-width:75;stroke-dasharray:none;stroke-opacity:1" transform="matrix(0.04,0,0,-0.04,379.12,0)" id="path614" />
        <path d="M 346,441 284,410 220,346 189,252 V 189 L 220,94.5 284,31.5 346,0 h 95 l 63,31.5 63,63 31,94.5 v 63 l -31,94 -63,64 -63,31 h -95" style="fill:none;stroke:#767676;stroke-width:75;stroke-dasharray:none;stroke-opacity:1" transform="matrix(0.04,0,0,-0.04,395.52,0)" id="path616" />
        <path d="m 567,346 -63,64 -63,31 H 346 L 284,410 220,346 189,252 V 189 L 220,94.5 284,31.5 346,0 h 95 l 63,31.5 63,63" style="fill:none;stroke:#767676;stroke-width:75;stroke-dasharray:none;stroke-opacity:1" transform="matrix(0.04,0,0,-0.04,419.44,0)" id="path618" />
        <path d="m 189,252 h 378 v 63 l -31,63 -32,32 -63,31 H 346 L 284,410 220,346 189,252 V 189 L 220,94.5 284,31.5 346,0 h 95 l 63,31.5 63,63" style="fill:none;stroke:#767676;stroke-width:75;stroke-dasharray:none;stroke-opacity:1" transform="matrix(0.04,0,0,-0.04,442.12,0)" id="path620" />
        <path d="m 536,346 -32,64 -94,31 h -95 l -95,-31 -31,-64 31,-62 64,-32 157,-32 63,-31 32,-63 V 94.5 L 504,31.5 410,0 h -95 l -95,31.5 -31,63" style="fill:none;stroke:#767676;stroke-width:75;stroke-dasharray:none;stroke-opacity:1" transform="matrix(0.04,0,0,-0.04,464.8,0)" id="path622" />
        <path d="m 536,346 -32,64 -94,31 h -95 l -95,-31 -31,-64 31,-62 64,-32 157,-32 63,-31 32,-63 V 94.5 L 504,31.5 410,0 h -95 l -95,31.5 -31,63" style="fill:none;stroke:#767676;stroke-width:75;stroke-dasharray:none;stroke-opacity:1" transform="matrix(0.04,0,0,-0.04,486.24,0)" id="path624" />
        <path d="m 220,158 -31,-32 31,-31.5 32,31.5 -32,32" style="fill:none;stroke:#767676;stroke-width:75;stroke-dasharray:none;stroke-opacity:1" transform="matrix(0.04,0,0,-0.04,507.68,0)" id="path626" />
      </g>
    </g>
    <g id="g1671" style="stroke:#767676;stroke-opacity:1">
      <g transform="translate(-3.54,-118.35729)" id="g706" style="fill:none;stroke:#767676;stroke-width:3;stroke-linecap:round;stroke-linejoin:round;stroke-dasharray:none;stroke-opacity:1">
        <path d="M 346,662 V 0 M 126,662 h 441" style="fill:none;stroke:#767676;stroke-width:75;stroke-dasharray:none;stroke-opacity:1" transform="scale(0.04,-0.04)" id="path630" />
        <path d="M 220,662 V 0 m 0,315 95,95 63,31 h 94 l 64,-31 31,-95 V 0" style="fill:none;stroke:#767676;stroke-width:75;stroke-dasharray:none;stroke-opacity:1" transform="matrix(0.04,0,0,-0.04,20.16,0)" id="path632" />
        <path d="m 189,252 h 378 v 63 l -31,63 -32,32 -63,31 H 346 L 284,410 220,346 189,252 V 189 L 220,94.5 284,31.5 346,0 h 95 l 63,31.5 63,63" style="fill:none;stroke:#767676;stroke-width:75;stroke-dasharray:none;stroke-opacity:1" transform="matrix(0.04,0,0,-0.04,44.08,0)" id="path634" />
        <path d="M 220,441 V 0 m 0,252 32,94 63,64 63,31 h 94" style="fill:none;stroke:#767676;stroke-width:75;stroke-dasharray:none;stroke-opacity:1" transform="matrix(0.04,0,0,-0.04,66.76,0)" id="path636" />
        <path d="m 189,252 h 378 v 63 l -31,63 -32,32 -63,31 H 346 L 284,410 220,346 189,252 V 189 L 220,94.5 284,31.5 346,0 h 95 l 63,31.5 63,63" style="fill:none;stroke:#767676;stroke-width:75;stroke-dasharray:none;stroke-opacity:1" transform="matrix(0.04,0,0,-0.04,83.16,0)" id="path638" />
        <path d="m 252,598 -32,32 32,32 32,-32 v -63 l -32,-63 -32,-32" style="fill:none;stroke:#767676;stroke-width:75;stroke-dasharray:none;stroke-opacity:1" transform="matrix(0.04,0,0,-0.04,105.84,0)" id="path640" />
        <path d="m 536,346 -32,64 -94,31 h -95 l -95,-31 -31,-64 31,-62 64,-32 157,-32 63,-31 32,-63 V 94.5 L 504,31.5 410,0 h -95 l -95,31.5 -31,63" style="fill:none;stroke:#767676;stroke-width:75;stroke-dasharray:none;stroke-opacity:1" transform="matrix(0.04,0,0,-0.04,118.44,0)" id="path642" />
        <path d="M 220,441 V 0 m 0,315 95,95 63,31 h 94 l 64,-31 31,-95 V 0" style="fill:none;stroke:#767676;stroke-width:75;stroke-dasharray:none;stroke-opacity:1" transform="matrix(0.04,0,0,-0.04,155,0)" id="path644" />
        <path d="M 346,441 284,410 220,346 189,252 V 189 L 220,94.5 284,31.5 346,0 h 95 l 63,31.5 63,63 31,94.5 v 63 l -31,94 -63,64 -63,31 h -95" style="fill:none;stroke:#767676;stroke-width:75;stroke-dasharray:none;stroke-opacity:1" transform="matrix(0.04,0,0,-0.04,178.92,0)" id="path646" />
        <path d="M 220,441 V 0 m 0,252 32,94 63,64 63,31 h 94" style="fill:none;stroke:#767676;stroke-width:75;stroke-dasharray:none;stroke-opacity:1" transform="matrix(0.04,0,0,-0.04,217.96,0)" id="path648" />
        <path d="m 189,662 31,-32 32,32 -32,31 -31,-31 M 220,441 V 0" style="fill:none;stroke:#767676;stroke-width:75;stroke-dasharray:none;stroke-opacity:1" transform="matrix(0.04,0,0,-0.04,234.36,0)" id="path650" />
        <path d="M 567,441 V -63 l -31,-95 -32,-31 -63,-31 h -95 l -62,31 m 283,535 -63,64 -63,31 H 346 L 284,410 220,346 189,252 V 189 L 220,94.5 284,31.5 346,0 h 95 l 63,31.5 63,63" style="fill:none;stroke:#767676;stroke-width:75;stroke-dasharray:none;stroke-opacity:1" transform="matrix(0.04,0,0,-0.04,244.44,0)" id="path652" />
        <path d="M 220,662 V 0 m 0,315 95,95 63,31 h 94 l 64,-31 31,-95 V 0" style="fill:none;stroke:#767676;stroke-width:75;stroke-dasharray:none;stroke-opacity:1" transform="matrix(0.04,0,0,-0.04,268.36,0)" id="path654" />
        <path d="M 252,662 V 126 L 284,31.5 346,0 h 64 M 158,441 h 220" style="fill:none;stroke:#767676;stroke-width:75;stroke-dasharray:none;stroke-opacity:1" transform="matrix(0.04,0,0,-0.04,292.28,0)" id="path656" />
        <path d="M 567,441 V 0 m 0,346 -63,64 -63,31 H 346 L 284,410 220,346 189,252 V 189 L 220,94.5 284,31.5 346,0 h 95 l 63,31.5 63,63" style="fill:none;stroke:#767676;stroke-width:75;stroke-dasharray:none;stroke-opacity:1" transform="matrix(0.04,0,0,-0.04,322.52,0)" id="path658" />
        <path d="M 220,441 V 0 m 0,315 95,95 63,31 h 94 l 64,-31 31,-95 V 0" style="fill:none;stroke:#767676;stroke-width:75;stroke-dasharray:none;stroke-opacity:1" transform="matrix(0.04,0,0,-0.04,346.44,0)" id="path660" />
        <path d="M 567,662 V 0 m 0,346 -63,64 -63,31 H 346 L 284,410 220,346 189,252 V 189 L 220,94.5 284,31.5 346,0 h 95 l 63,31.5 63,63" style="fill:none;stroke:#767676;stroke-width:75;stroke-dasharray:none;stroke-opacity:1" transform="matrix(0.04,0,0,-0.04,370.36,0)" id="path662" />
        <path d="M 189,441 315,0 M 441,441 315,0 M 441,441 567,0 M 693,441 567,0" style="fill:none;stroke:#767676;stroke-width:75;stroke-dasharray:none;stroke-opacity:1" transform="matrix(0.04,0,0,-0.04,409.4,0)" id="path664" />
        <path d="M 220,441 V 0 m 0,252 32,94 63,64 63,31 h 94" style="fill:none;stroke:#767676;stroke-width:75;stroke-dasharray:none;stroke-opacity:1" transform="matrix(0.04,0,0,-0.04,437.12,0)" id="path666" />
        <path d="M 346,441 284,410 220,346 189,252 V 189 L 220,94.5 284,31.5 346,0 h 95 l 63,31.5 63,63 31,94.5 v 63 l -31,94 -63,64 -63,31 h -95" style="fill:none;stroke:#767676;stroke-width:75;stroke-dasharray:none;stroke-opacity:1" transform="matrix(0.04,0,0,-0.04,453.52,0)" id="path668" />
        <path d="M 220,441 V 0 m 0,315 95,95 63,31 h 94 l 64,-31 31,-95 V 0" style="fill:none;stroke:#767676;stroke-width:75;stroke-dasharray:none;stroke-opacity:1" transform="matrix(0.04,0,0,-0.04,477.44,0)" id="path670" />
        <path d="M 567,441 V -63 l -31,-95 -32,-31 -63,-31 h -95 l -62,31 m 283,535 -63,64 -63,31 H 346 L 284,410 220,346 189,252 V 189 L 220,94.5 284,31.5 346,0 h 95 l 63,31.5 63,63" style="fill:none;stroke:#767676;stroke-width:75;stroke-dasharray:none;stroke-opacity:1" transform="matrix(0.04,0,0,-0.04,501.36,0)" id="path672" />
        <path d="M 220,662 V 0 m 0,315 95,95 63,31 h 94 l 64,-31 31,-95 V 0" style="fill:none;stroke:#767676;stroke-width:75;stroke-dasharray:none;stroke-opacity:1" transform="matrix(0.04,0,0,-0.04,540.4,0)" id="path674" />
        <path d="m 189,252 h 378 v 63 l -31,63 -32,32 -63,31 H 346 L 284,410 220,346 189,252 V 189 L 220,94.5 284,31.5 346,0 h 95 l 63,31.5 63,63" style="fill:none;stroke:#767676;stroke-width:75;stroke-dasharray:none;stroke-opacity:1" transform="matrix(0.04,0,0,-0.04,564.32,0)" id="path676" />
        <path d="M 220,441 V 0 m 0,252 32,94 63,64 63,31 h 94" style="fill:none;stroke:#767676;stroke-width:75;stroke-dasharray:none;stroke-opacity:1" transform="matrix(0.04,0,0,-0.04,587,0)" id="path678" />
        <path d="m 189,252 h 378 v 63 l -31,63 -32,32 -63,31 H 346 L 284,410 220,346 189,252 V 189 L 220,94.5 284,31.5 346,0 h 95 l 63,31.5 63,63" style="fill:none;stroke:#767676;stroke-width:75;stroke-dasharray:none;stroke-opacity:1" transform="matrix(0.04,0,0,-0.04,603.4,0)" id="path680" />
        <path d="M 220,284 H 788" style="fill:none;stroke:#767676;stroke-width:75;stroke-dasharray:none;stroke-opacity:1" transform="matrix(0.04,0,0,-0.04,641.2,0)" id="path682" />
        <path d="M 567,662 V 0 m 0,346 -63,64 -63,31 H 346 L 284,410 220,346 189,252 V 189 L 220,94.5 284,31.5 346,0 h 95 l 63,31.5 63,63" style="fill:none;stroke:#767676;stroke-width:75;stroke-dasharray:none;stroke-opacity:1" transform="matrix(0.04,0,0,-0.04,689.08,0)" id="path684" />
        <path d="M 220,441 V 0 m 0,252 32,94 63,64 63,31 h 94" style="fill:none;stroke:#767676;stroke-width:75;stroke-dasharray:none;stroke-opacity:1" transform="matrix(0.04,0,0,-0.04,713,0)" id="path686" />
        <path d="M 567,441 V 0 m 0,346 -63,64 -63,31 H 346 L 284,410 220,346 189,252 V 189 L 220,94.5 284,31.5 346,0 h 95 l 63,31.5 63,63" style="fill:none;stroke:#767676;stroke-width:75;stroke-dasharray:none;stroke-opacity:1" transform="matrix(0.04,0,0,-0.04,729.4,0)" id="path688" />
        <path d="M 189,441 315,0 M 441,441 315,0 M 441,441 567,0 M 693,441 567,0" style="fill:none;stroke:#767676;stroke-width:75;stroke-dasharray:none;stroke-opacity:1" transform="matrix(0.04,0,0,-0.04,753.32,0)" id="path690" />
        <path d="M 189,441 315,0 M 441,441 315,0 M 441,441 567,0 M 693,441 567,0" style="fill:none;stroke:#767676;stroke-width:75;stroke-dasharray:none;stroke-opacity:1" transform="matrix(0.04,0,0,-0.04,796.16,0)" id="path692" />
        <path d="M 220,662 V 0 m 0,315 95,95 63,31 h 94 l 64,-31 31,-95 V 0" style="fill:none;stroke:#767676;stroke-width:75;stroke-dasharray:none;stroke-opacity:1" transform="matrix(0.04,0,0,-0.04,823.88,0)" id="path694" />
        <path d="M 567,441 V 0 m 0,346 -63,64 -63,31 H 346 L 284,410 220,346 189,252 V 189 L 220,94.5 284,31.5 346,0 h 95 l 63,31.5 63,63" style="fill:none;stroke:#767676;stroke-width:75;stroke-dasharray:none;stroke-opacity:1" transform="matrix(0.04,0,0,-0.04,847.8,0)" id="path696" />
        <path d="M 252,662 V 126 L 284,31.5 346,0 h 64 M 158,441 h 220" style="fill:none;stroke:#767676;stroke-width:75;stroke-dasharray:none;stroke-opacity:1" transform="matrix(0.04,0,0,-0.04,871.72,0)" id="path698" />
        <path d="M 158,441 346,0 M 536,441 346,0 l -62,-126 -64,-63 -62,-31 h -32" style="fill:none;stroke:#767676;stroke-width:75;stroke-dasharray:none;stroke-opacity:1" transform="matrix(0.04,0,0,-0.04,901.96,0)" id="path700" />
        <path d="M 346,441 284,410 220,346 189,252 V 189 L 220,94.5 284,31.5 346,0 h 95 l 63,31.5 63,63 31,94.5 v 63 l -31,94 -63,64 -63,31 h -95" style="fill:none;stroke:#767676;stroke-width:75;stroke-dasharray:none;stroke-opacity:1" transform="matrix(0.04,0,0,-0.04,922.12,0)" id="path702" />
        <path d="M 220,441 V 126 L 252,31.5 315,0 h 95 l 62,31.5 95,94.5 m 0,315 V 0" style="fill:none;stroke:#767676;stroke-width:75;stroke-dasharray:none;stroke-opacity:1" transform="matrix(0.04,0,0,-0.04,946.04,0)" id="path704" />
      </g>
      <g transform="translate(973.82,-116.99732)" id="g718" style="fill:none;stroke:#767676;stroke-width:3;stroke-linecap:round;stroke-linejoin:round;stroke-dasharray:none;stroke-opacity:1">
        <path d="M 220,662 V 0" style="fill:none;stroke:#767676;stroke-width:75;stroke-dasharray:none;stroke-opacity:1" transform="scale(0.04,-0.04)" id="path708" />
        <path d="m 189,662 31,-32 32,32 -32,31 -31,-31 M 220,441 V 0" style="fill:none;stroke:#767676;stroke-width:75;stroke-dasharray:none;stroke-opacity:1" transform="matrix(0.04,0,0,-0.04,10.08,0)" id="path710" />
        <path d="M 220,662 V 0 M 536,441 220,126 M 346,252 567,0" style="fill:none;stroke:#767676;stroke-width:75;stroke-dasharray:none;stroke-opacity:1" transform="matrix(0.04,0,0,-0.04,20.16,0)" id="path712" />
        <path d="m 189,252 h 378 v 63 l -31,63 -32,32 -63,31 H 346 L 284,410 220,346 189,252 V 189 L 220,94.5 284,31.5 346,0 h 95 l 63,31.5 63,63" style="fill:none;stroke:#767676;stroke-width:75;stroke-dasharray:none;stroke-opacity:1" transform="matrix(0.04,0,0,-0.04,41.6,0)" id="path714" />
        <path d="m 220,158 -31,-32 31,-31.5 32,31.5 -32,32" style="fill:none;stroke:#767676;stroke-width:75;stroke-dasharray:none;stroke-opacity:1" transform="matrix(0.04,0,0,-0.04,64.28,0)" id="path716" />
      </g>
    </g>
  </g>
</svg>
